<?xml version="1.0" standalone="no"?>
<!DOCTYPE svg PUBLIC "-//W3C//DTD SVG 20010904//EN"
 "http://www.w3.org/TR/2001/REC-SVG-20010904/DTD/svg10.dtd">
<svg version="1.0" xmlns="http://www.w3.org/2000/svg"
 width="700.000000pt" height="700.000000pt" viewBox="0 0 700.000000 700.000000"
 preserveAspectRatio="xMidYMid meet">
<metadata>
Created by potrace 1.11, written by Peter Selinger 2001-2013
</metadata>
<g transform="translate(0.000000,700.000000) scale(0.100000,-0.100000)"
fill="#000000" stroke="none">
<path d="M0 3505 l0 -3495 23 -1 c162 -3 6960 0 6964 4 3 3 5 1575 5 3494 l1
3488 -3497 3 -3496 2 0 -3495z m6936 1725 l0 -1720 -21 -1 c-75 -3 -2746 -1
-2749 2 -2 2 -6 40 -8 84 -3 50 -30 184 -71 360 -46 192 -66 292 -62 320 6 57
14 139 21 220 3 39 7 86 9 105 2 19 6 76 10 125 3 50 24 176 47 282 l40 191
-37 144 c-75 286 -71 250 -35 353 17 50 41 118 53 152 l21 62 -37 118 c-21 64
-44 124 -51 132 -13 12 -25 9 -93 -24 -81 -39 -106 -57 -333 -234 l-134 -106
-241 -1 c-227 -1 -242 0 -270 20 -16 11 -91 68 -165 126 -74 58 -155 119 -180
136 -64 42 -176 97 -190 92 -12 -4 -90 -228 -90 -259 0 -8 23 -80 51 -160 45
-128 50 -148 41 -184 -5 -22 -28 -114 -52 -204 -40 -155 -42 -166 -30 -220 6
-31 13 -67 16 -81 3 -14 12 -54 20 -90 28 -123 42 -205 49 -280 3 -41 8 -93
10 -115 7 -65 14 -145 21 -225 3 -41 7 -85 9 -97 2 -11 -9 -74 -25 -140 -15
-65 -47 -199 -70 -298 -28 -119 -42 -201 -42 -242 l1 -63 -1159 0 -1160 0 0
1720 0 1720 3443 0 3442 0 1 -1720z m-4349 713 c60 -76 122 -156 138 -178 l30
-39 -30 20 c-16 11 -87 53 -158 94 -70 40 -130 76 -133 81 -4 7 37 159 43 159
1 0 50 -62 110 -137z m1481 40 l19 -62 -155 -91 c-85 -50 -156 -89 -158 -87
-3 2 66 92 124 162 9 11 44 56 77 99 66 87 59 89 93 -21z m-1418 23 c30 -22
57 -43 60 -46 3 -3 34 -28 70 -55 36 -27 67 -52 70 -55 3 -3 36 -29 74 -58
l69 -52 262 0 263 0 183 143 c254 198 257 199 182 102 -34 -44 -107 -138 -164
-209 -95 -121 -103 -135 -126 -215 -13 -47 -25 -93 -27 -101 -1 -8 -8 -35 -15
-60 -7 -25 -14 -52 -16 -60 -2 -8 -22 -87 -45 -175 -46 -178 -104 -405 -114
-447 -3 -15 -32 -54 -64 -88 l-57 -61 -57 58 -56 58 -82 313 c-45 171 -83 320
-85 330 -2 9 -17 67 -33 127 -17 61 -33 126 -37 145 -6 28 -41 87 -65 110 -3
3 -21 25 -40 50 -19 25 -40 52 -47 60 -6 8 -47 60 -90 115 -44 55 -83 106 -88
114 -11 18 4 10 75 -43z m85 -333 l40 -23 -35 -1 c-19 0 -48 -2 -65 -4 -16 -2
-59 -5 -94 -6 l-63 -4 -34 95 c-18 52 -33 98 -34 102 0 4 55 -25 123 -64 67
-39 140 -82 162 -95z m1292 56 c-19 -52 -38 -93 -43 -92 -5 0 -58 4 -118 7
-60 4 -111 8 -113 10 -3 3 94 66 101 66 2 0 48 27 102 59 55 33 100 56 102 52
1 -4 -13 -50 -31 -102z m-1177 -134 c0 -6 102 -399 107 -413 6 -14 4 -15 -9
-4 -20 16 -38 19 -158 26 -52 3 -140 9 -195 12 -55 4 -115 7 -132 7 -18 0 -33
2 -33 4 0 8 90 347 93 349 1 2 59 6 127 9 69 4 126 8 127 8 2 3 73 4 73 2z
m990 -9 c36 -3 84 -5 107 -5 48 -1 37 21 94 -191 39 -143 41 -164 14 -166 -34
-3 -205 -13 -335 -20 -82 -4 -132 -12 -147 -21 l-22 -15 19 69 c10 37 33 124
50 193 44 178 39 169 102 164 29 -2 82 -6 118 -8z m-1220 -430 c113 -7 125
-13 161 -85 8 -14 26 -45 41 -67 26 -40 30 -42 114 -57 47 -9 87 -17 88 -19 3
-4 56 -215 56 -221 0 -3 -33 -6 -72 -6 -73 1 -73 1 -253 97 l-180 97 -62 120
c-33 66 -62 127 -62 135 -1 17 -9 16 169 6z m1450 9 c0 -3 -29 -64 -64 -137
l-65 -133 -63 -32 c-35 -18 -115 -60 -178 -94 -100 -54 -123 -63 -175 -65 -82
-4 -96 1 -85 29 5 12 16 56 26 97 23 101 26 106 76 113 78 11 113 19 126 29 7
6 35 48 63 94 30 51 57 84 67 84 37 1 207 12 209 14 4 3 63 5 63 1z m-1123
-68 c25 -24 45 -55 49 -73 l6 -32 -61 13 c-34 7 -63 14 -65 16 -2 2 -19 31
-38 65 l-35 60 51 -4 c44 -3 57 -10 93 -45z m750 37 c1 -5 -13 -34 -31 -64
-33 -52 -37 -55 -93 -66 -32 -6 -59 -11 -61 -9 -19 17 64 127 108 143 27 10
73 8 77 -4z m-1124 -302 c23 -12 83 -43 132 -70 50 -26 118 -63 153 -82 50
-26 76 -34 119 -34 l55 0 -33 -29 c-85 -71 -79 -70 -140 -32 -30 18 -71 43
-91 54 -108 59 -259 165 -263 185 -31 138 -31 144 1 80 18 -38 35 -56 67 -72z
m1455 76 c-5 -24 -12 -54 -14 -67 -3 -14 -7 -28 -10 -33 -9 -13 -113 -82 -263
-173 l-141 -85 -54 42 c-30 23 -53 45 -51 48 2 4 25 6 50 5 40 -1 70 12 243
105 192 103 198 107 220 153 12 26 24 47 26 47 2 0 -1 -19 -6 -42z m-23 -230
c-6 -56 -10 -101 -20 -235 -4 -46 -8 -91 -10 -100 -2 -10 -4 -36 -4 -58 -1
-35 -10 -49 -64 -107 -58 -62 -215 -230 -287 -308 -97 -104 -279 -299 -307
-327 l-32 -33 43 0 c35 0 47 5 67 29 20 24 98 107 293 315 137 147 236 254
262 283 l31 35 6 -29 c3 -15 27 -116 52 -223 26 -107 48 -204 51 -215 2 -11 7
-33 10 -50 9 -41 11 -124 2 -138 -4 -7 -121 -10 -369 -10 l-362 0 -31 -28
c-17 -15 -29 -29 -26 -32 3 -2 86 -58 185 -124 150 -100 215 -135 385 -212
113 -51 209 -93 214 -94 4 -1 8 110 8 246 l-1 248 27 -3 27 -3 5 -267 5 -266
130 -148 c72 -81 135 -152 140 -158 45 -50 75 -88 71 -94 -3 -5 -17 -156 -18
-202 -1 -26 14 -39 101 -87 13 -7 50 -29 81 -48 31 -19 144 -69 251 -111 258
-101 440 -173 635 -250 l162 -64 53 24 c30 13 98 44 151 69 83 40 115 48 230
65 73 11 140 16 148 12 15 -8 110 -223 110 -247 0 -7 -64 -96 -142 -199 l-141
-187 -126 7 c-69 4 -157 9 -196 11 -38 2 -117 7 -175 10 -108 6 -184 13 -210
20 -16 5 -31 7 -170 30 -52 8 -104 17 -116 19 -12 2 -45 7 -75 11 -30 4 -57 8
-60 10 -3 2 -25 6 -50 9 -24 3 -53 8 -64 10 -18 3 -68 12 -130 22 -161 26
-223 36 -238 40 -13 4 -24 -9 -48 -63 -16 -37 -32 -69 -34 -71 -2 -2 -33 -10
-69 -19 l-65 -14 -59 31 c-32 17 -69 41 -82 53 -86 76 -100 86 -127 82 -15 -2
-45 -4 -65 -4 -21 -1 -38 -5 -38 -10 0 -5 35 -30 78 -55 l79 -46 37 -86 c24
-56 36 -95 32 -110 -4 -13 -25 -54 -48 -92 l-42 -70 -160 -25 c-95 -15 -166
-22 -175 -17 -29 15 -222 219 -225 237 -4 17 -6 45 -22 223 -4 41 -8 82 -10
90 -1 8 -3 25 -3 37 -1 28 -193 169 -213 157 -7 -5 -51 -35 -98 -68 -47 -33
-86 -61 -88 -62 -5 -3 -10 -37 -16 -114 -25 -292 -18 -265 -94 -344 -164 -170
-150 -159 -190 -157 -20 1 -44 3 -52 5 -8 1 -37 6 -65 10 -27 4 -61 9 -74 12
-13 2 -44 6 -67 10 -42 6 -46 9 -94 90 -27 45 -50 86 -50 89 0 3 10 27 21 53
12 26 30 66 40 89 10 23 28 48 41 56 13 8 50 32 83 53 l60 38 -70 8 c-69 7
-70 7 -112 -28 -23 -19 -49 -41 -57 -49 -7 -8 -43 -30 -79 -50 -60 -33 -68
-35 -110 -26 -88 20 -92 24 -127 112 l-33 82 33 100 c32 98 32 104 25 211 -9
137 -11 169 -19 237 -3 30 -8 92 -12 139 -3 47 -7 96 -9 109 -3 14 -7 67 -10
118 l-7 94 69 77 c79 89 128 144 162 181 13 14 42 48 65 74 l41 48 5 267 5
267 25 0 c24 0 25 2 26 75 1 73 12 132 76 390 16 69 32 139 35 155 3 17 7 32
10 35 2 3 29 -22 60 -55 30 -33 106 -114 168 -180 61 -66 123 -132 136 -146
13 -15 74 -79 134 -144 61 -64 111 -120 113 -123 1 -4 -163 -7 -365 -7 l-368
0 -3 -247 -2 -247 42 18 c306 134 401 183 568 296 96 65 176 121 178 125 1 3
-7 15 -18 25 -28 25 -25 33 14 37 l35 3 -77 81 c-42 44 -129 136 -192 204 -63
68 -128 138 -145 155 -16 18 -77 83 -135 145 -58 63 -111 119 -118 127 -8 7
-15 34 -17 61 -3 26 -7 79 -10 117 -3 39 -8 81 -10 95 -2 14 -6 66 -10 115 -4
50 -9 93 -12 98 -11 18 22 3 108 -52 52 -32 112 -69 135 -82 22 -13 63 -37 90
-53 29 -17 74 -59 109 -102 33 -40 71 -78 85 -83 24 -10 179 -50 209 -55 21
-4 232 52 247 65 7 6 38 41 68 78 49 59 75 80 208 159 84 50 169 102 188 116
19 14 39 25 43 26 4 0 5 -24 2 -52z m-863 -72 c13 -13 33 -34 46 -48 l23 -25
-51 -33 -50 -32 -61 24 c-33 14 -61 28 -61 32 0 9 113 105 124 105 4 1 17 -10
30 -23z m330 -30 l67 -53 -69 -28 -70 -28 -50 34 -50 34 47 47 c26 27 50 48
53 48 3 0 35 -24 72 -54z m-152 -126 c64 -43 89 -48 134 -25 36 19 42 14 19
-13 -12 -14 -51 -29 -118 -46 l-100 -26 -104 28 c-80 21 -107 32 -119 50 l-16
24 38 -16 c56 -24 75 -20 136 24 30 22 59 40 63 40 4 0 35 -18 67 -40z"/>
<path d="M942 4918 c3 -146 5 -163 21 -166 15 -3 17 5 17 67 l0 71 191 0 190
0 -3 23 c-3 22 -4 22 -190 22 l-188 0 0 66 c0 63 -7 79 -36 79 -3 0 -3 -73 -2
-162z"/>
<path d="M1150 4484 c-107 -46 -199 -85 -205 -87 -10 -4 59 -39 150 -75 28
-11 98 -41 158 -66 106 -45 107 -45 107 -22 0 18 -9 27 -45 40 l-45 18 0 97 0
97 45 22 c31 15 45 28 45 42 0 11 -3 20 -7 19 -5 0 -96 -38 -203 -85z m76 -92
l0 -79 -88 36 c-48 20 -88 38 -88 41 0 5 154 75 171 79 3 0 6 -34 5 -77z"/>
<path d="M970 4020 c-18 -11 -40 -80 -40 -125 0 -144 142 -250 280 -209 129
38 195 180 139 298 -16 35 -25 44 -45 42 -29 -1 -29 -1 -4 -41 59 -96 6 -226
-105 -254 -144 -35 -266 99 -210 232 8 20 19 38 25 42 5 3 10 9 10 13 0 9 -37
10 -50 2z"/>
<path d="M3250 3500 c0 -5 5 -10 10 -10 6 0 10 5 10 10 0 6 -4 10 -10 10 -5 0
-10 -4 -10 -10z"/>
<path d="M3086 3295 c-93 -63 -171 -117 -174 -120 -4 -3 115 -143 158 -185 9
-9 184 -205 186 -208 2 -2 18 13 37 35 19 21 46 50 58 64 190 206 259 283 259
290 0 5 -346 240 -352 238 -2 0 -79 -52 -172 -114z"/>
<path d="M2750 3097 c-36 -18 -106 -50 -155 -72 -145 -64 -170 -79 -167 -95 4
-15 81 -373 87 -400 28 -133 35 -163 38 -166 3 -4 206 51 212 57 4 5 12 77 20
174 3 39 7 97 10 130 3 33 7 86 10 117 2 31 6 83 9 115 14 151 15 173 8 172
-4 0 -36 -15 -72 -32z"/>
<path d="M3694 3113 c3 -10 8 -63 11 -118 4 -55 8 -111 10 -125 2 -14 7 -63
10 -110 11 -146 13 -173 20 -255 4 -44 9 -81 10 -83 5 -6 210 -61 214 -57 5 6
71 304 105 480 3 11 9 39 14 62 l10 41 -82 38 c-127 58 -319 144 -323 144 -3
0 -2 -8 1 -17z"/>
<path d="M2883 3088 c-1 -16 -12 -146 -18 -208 -2 -25 -7 -85 -10 -135 -4 -49
-8 -103 -10 -120 -2 -16 -6 -71 -10 -121 l-6 -90 118 -56 c84 -39 120 -52 125
-43 4 7 41 102 81 213 l74 201 -29 33 c-16 18 -45 51 -65 73 -19 22 -74 82
-121 134 -48 52 -93 102 -100 112 -15 22 -28 25 -29 7z"/>
<path d="M3507 2967 c-64 -73 -138 -154 -163 -182 -35 -38 -44 -56 -41 -75 4
-23 95 -270 135 -366 l17 -42 85 39 c121 56 155 75 154 85 -1 5 -5 50 -8 99
-10 125 -15 193 -20 245 -3 25 -8 88 -12 140 -4 52 -8 106 -9 120 -2 14 -3 35
-4 48 -1 12 -4 22 -8 21 -5 0 -61 -60 -126 -132z"/>
<path d="M2310 2829 c-157 -174 -209 -234 -210 -239 0 -6 35 -25 261 -144
l126 -66 -7 38 c-9 47 -100 464 -103 475 -1 5 -32 -24 -67 -64z"/>
<path d="M4116 2758 c-16 -79 -41 -195 -56 -259 l-26 -116 25 11 c14 6 49 23
76 38 28 15 102 53 165 86 63 33 116 64 117 68 2 5 -9 23 -23 39 -43 50 -156
177 -204 228 l-45 48 -29 -143z"/>
<path d="M3192 2468 c-19 -51 -44 -122 -57 -158 -13 -36 -26 -102 -29 -146 -8
-100 -15 -176 -21 -232 -16 -148 -17 -215 -4 -206 51 31 141 99 145 108 2 6 3
172 2 369 l-3 358 -33 -93z"/>
<path d="M3289 2399 c0 -90 -1 -251 -2 -358 -2 -120 1 -198 8 -206 13 -16 150
-115 159 -115 4 0 5 3 3 8 -3 4 -8 50 -11 102 -4 52 -9 113 -11 135 -3 22 -7
67 -10 100 -2 33 -7 89 -11 125 -3 42 -25 117 -61 215 -30 83 -57 152 -59 154
-2 2 -4 -70 -5 -160z"/>
<path d="M2084 2492 c4 -37 17 -191 21 -247 5 -67 16 -192 20 -225 3 -19 7
-71 10 -115 4 -44 8 -87 11 -95 9 -28 120 -110 202 -149 l80 -40 6 37 c3 20 8
62 10 92 10 102 27 285 31 320 5 46 18 188 19 218 1 20 -17 33 -124 88 -69 36
-162 85 -207 110 l-82 44 3 -38z"/>
<path d="M4390 2503 c-25 -14 -110 -59 -190 -101 -176 -91 -178 -92 -174 -115
1 -10 5 -46 8 -80 15 -153 17 -174 21 -212 2 -22 7 -67 10 -100 22 -219 27
-270 29 -271 0 -1 35 15 77 35 101 48 209 135 210 170 1 14 2 37 3 51 2 14 6
59 10 100 3 41 8 93 10 115 3 22 7 81 11 130 3 50 8 104 10 120 7 48 17 185
13 184 -2 -1 -23 -12 -48 -26z"/>
<path d="M2665 2331 c-88 -23 -100 -29 -96 -46 2 -11 18 -85 36 -165 18 -80
52 -228 74 -330 52 -231 46 -213 80 -233 37 -22 40 -22 36 6 -2 12 -6 132 -10
267 -6 258 -15 524 -18 526 -1 1 -47 -11 -102 -25z"/>
<path d="M3755 2346 c-2 -6 -6 -105 -9 -221 -3 -115 -9 -295 -12 -398 l-6
-189 31 17 c33 17 37 23 45 65 2 14 13 63 24 110 19 79 67 290 77 335 2 11 15
69 28 128 14 62 20 110 15 113 -5 3 -50 16 -99 29 -63 16 -92 19 -94 11z"/>
<path d="M2835 2107 c4 -133 9 -282 10 -332 2 -49 4 -130 4 -180 l1 -90 61
-78 c34 -43 62 -77 64 -75 2 2 6 41 10 88 4 47 9 103 11 125 2 22 6 72 9 110
3 39 7 86 10 105 2 19 7 73 11 120 4 47 8 99 10 115 1 17 5 68 9 115 3 47 8
92 10 100 3 11 -28 30 -111 67 l-115 52 6 -242z"/>
<path d="M3674 2341 c-5 -4 -53 -27 -107 -51 l-99 -44 7 -85 c4 -47 8 -104 10
-126 13 -144 16 -184 20 -215 2 -19 7 -70 10 -112 4 -43 8 -90 10 -105 2 -16
6 -73 10 -128 8 -116 16 -140 35 -104 7 13 16 26 19 29 3 3 23 26 43 51 l37
46 5 149 c3 82 8 246 11 364 4 118 8 241 9 273 2 58 -3 73 -20 58z"/>
<path d="M4474 2253 c0 -16 -4 -68 -9 -118 -4 -49 -8 -105 -9 -124 l-1 -33
135 -49 c74 -26 135 -48 135 -48 0 0 8 -3 18 -7 10 -3 20 -5 22 -3 2 3 -14 68
-37 145 l-40 141 -100 59 c-56 33 -103 60 -107 62 -3 1 -6 -10 -7 -25z"/>
<path d="M2534 2108 c-1 -33 -14 -189 -19 -218 -2 -14 -6 -54 -9 -90 -3 -36
-8 -95 -12 -132 -6 -67 -6 -68 17 -68 13 0 54 -3 90 -6 l67 -6 -35 148 c-19
82 -36 158 -38 169 -16 77 -49 211 -55 218 -3 4 -6 -3 -6 -15z"/>
<path d="M3973 2112 c-1 -9 -9 -48 -18 -87 -22 -94 -24 -105 -31 -144 -3 -19
-10 -45 -15 -58 -5 -13 -6 -23 -4 -23 2 0 1 -10 -4 -23 -5 -13 -12 -39 -15
-58 -3 -19 -10 -50 -16 -69 -18 -61 -16 -62 48 -56 31 3 71 5 88 5 l30 1 -7
68 c-4 37 -11 103 -14 147 -4 44 -8 91 -11 105 -2 14 -6 63 -10 110 -6 78 -18
125 -21 82z"/>
<path d="M4765 2098 c3 -13 21 -75 39 -138 l33 -115 48 -12 c27 -7 64 -15 83
-18 19 -3 38 -7 42 -10 3 -2 20 -6 36 -9 16 -3 161 -35 321 -71 161 -36 299
-65 308 -65 11 0 15 12 15 48 0 41 -4 50 -23 59 -12 6 -166 67 -342 136 -176
69 -372 146 -435 171 -63 25 -118 46 -123 46 -4 0 -5 -10 -2 -22z"/>
<path d="M4446 1902 c-14 -44 -8 -122 14 -187 12 -38 25 -74 27 -78 3 -4 32
12 66 36 34 24 90 63 125 87 34 24 62 46 62 50 0 4 -44 22 -97 40 -54 18 -119
41 -145 51 -44 17 -47 17 -52 1z"/>
<path d="M6123 1908 l-63 -10 -1 -36 c0 -21 -2 -52 -3 -71 l-3 -33 59 58 c59
60 94 105 81 103 -5 -1 -36 -6 -70 -11z"/>
<path d="M6184 1809 c-49 -51 -97 -99 -106 -108 -23 -20 -22 -29 1 -110 11
-36 25 -85 31 -109 l11 -43 105 138 c58 76 109 145 114 153 7 13 -43 147 -62
165 -3 3 -45 -36 -94 -86z"/>
<path d="M5860 1812 l-115 -57 1 -40 c2 -61 3 -67 12 -61 4 2 43 12 87 21 44
9 96 20 116 25 l35 10 2 80 c2 60 -1 80 -10 79 -7 0 -65 -26 -128 -57z"/>
<path d="M4694 1701 c-108 -77 -134 -100 -119 -102 2 0 19 -4 36 -9 17 -5 57
-12 88 -16 31 -3 58 -8 61 -9 3 -2 26 -6 50 -10 25 -3 86 -13 135 -21 119 -20
135 -23 165 -28 14 -3 43 -8 65 -11 22 -4 51 -8 65 -10 14 -3 78 -13 142 -23
l117 -19 75 76 c42 42 76 79 76 82 0 2 -8 5 -17 6 -10 1 -97 20 -193 42 -96
22 -186 42 -200 45 -21 4 -89 19 -140 31 -40 10 -160 36 -205 45 -27 6 -57 12
-65 14 -8 2 -69 -35 -136 -83z"/>
<path d="M2116 1694 c-9 -26 -14 -49 -12 -51 2 -2 25 6 51 17 26 11 46 22 44
23 -2 1 -18 15 -35 30 l-32 28 -16 -47z"/>
<path d="M4348 1706 l-27 -24 46 -22 c25 -11 47 -19 50 -17 8 9 -20 87 -31 87
-6 0 -23 -11 -38 -24z"/>
<path d="M5870 1621 c-63 -14 -119 -26 -123 -26 -9 0 -167 -146 -167 -154 0
-4 15 -7 33 -7 17 -1 77 -4 132 -8 218 -14 325 -18 325 -13 0 3 -4 17 -10 32
-5 14 -12 36 -14 48 -13 59 -44 151 -52 153 -5 1 -61 -10 -124 -25z"/>
<path d="M2271 1566 c-13 -74 -14 -96 -3 -96 9 0 47 26 77 52 11 9 29 24 40
31 18 14 15 17 -42 45 l-61 31 -11 -63z"/>
<path d="M2141 1591 c-35 -16 -59 -31 -54 -34 5 -3 16 -24 23 -47 14 -43 34
-60 69 -60 15 0 21 7 22 23 0 12 2 31 4 42 11 60 15 105 8 105 -4 0 -37 -13
-72 -29z"/>
<path d="M4167 1594 l-48 -25 33 -27 c18 -15 35 -29 38 -32 3 -3 22 -16 42
-29 l37 -22 -5 23 c-2 13 -7 46 -10 73 -10 77 -12 78 -87 39z"/>
<path d="M4312 1558 c5 -35 9 -73 10 -86 2 -21 6 -23 38 -17 19 4 35 8 36 8 7
13 34 90 34 96 0 9 -103 61 -120 61 -3 0 -3 -28 2 -62z"/>
<path d="M2618 1472 c-42 -26 -77 -50 -78 -54 0 -6 101 -48 116 -48 2 0 30 25
61 55 55 53 56 56 37 70 -10 8 -22 15 -26 15 -3 0 -12 2 -20 4 -7 2 -48 -17
-90 -42z"/>
<path d="M3786 1505 c-10 -8 -24 -16 -30 -18 -10 -4 100 -117 114 -117 4 0 33
11 65 24 l57 23 -57 34 c-67 40 -118 68 -125 68 -3 0 -14 -6 -24 -14z"/>
<path d="M2770 1395 c-24 -25 -42 -45 -40 -45 3 0 46 -9 95 -19 50 -10 91 -17
93 -16 5 4 -90 125 -98 125 -3 0 -26 -20 -50 -45z"/>
<path d="M3655 1388 c-58 -76 -61 -81 -39 -74 11 3 35 8 54 11 57 10 111 23
117 28 4 5 -70 78 -86 85 -4 1 -24 -21 -46 -50z"/>
<path d="M2465 1336 c-8 -19 -15 -37 -15 -40 0 -4 111 33 119 40 4 3 -23 15
-67 28 -19 6 -25 2 -37 -28z"/>
<path d="M3986 1352 l-39 -17 55 -18 c75 -23 78 -22 60 18 -18 40 -23 41 -76
17z"/>
<path d="M2720 1285 c0 -14 73 -175 79 -175 4 0 37 31 74 69 l67 69 -28 6
c-15 4 -40 9 -57 12 -16 2 -37 7 -45 9 -33 10 -90 16 -90 10z"/>
<path d="M3687 1270 c-48 -10 -90 -20 -93 -22 -5 -6 123 -138 133 -138 5 0 25
41 45 90 42 103 49 97 -85 70z"/>
<path d="M2513 1256 c-34 -11 -64 -24 -68 -27 -5 -6 32 -79 40 -79 3 0 77 98
89 118 4 6 6 11 4 11 -2 -1 -31 -11 -65 -23z"/>
<path d="M3971 1236 c16 -23 38 -52 48 -65 l18 -23 23 37 c12 20 19 40 14 44
-5 5 -37 17 -71 28 l-62 20 30 -41z"/>
<path d="M2604 1208 c-26 -35 -52 -66 -57 -69 -19 -13 4 -26 55 -32 29 -4 72
-9 95 -13 l43 -6 -39 86 c-21 47 -40 89 -43 92 -3 3 -28 -23 -54 -58z"/>
<path d="M3826 1184 c-20 -48 -35 -89 -33 -90 6 -7 172 18 181 26 4 5 -13 35
-39 67 -26 32 -50 64 -52 70 -10 26 -22 11 -57 -73z"/>
</g>
</svg>
