<svg id="Layer_1" data-name="Layer 1" xmlns="http://www.w3.org/2000/svg" viewBox="0 0 566.93 566.93"><defs><style>.cls-1{fill:none;}.cls-2{fill:#00b2ca;}</style></defs><title>Artboard 1</title><rect class="cls-1" width="566.93" height="566.93"/><path class="cls-2" d="M136.6,434.8c.48,9.9-6.68,17.25-17.25,17.25H108.67V417.54h10.67C129.92,417.54,137.08,424.32,136.6,434.8Zm-24.17,13.89h6.92a13.21,13.21,0,0,0,13.47-12.95q0-.47,0-.94c.48-7.78-4.95-13.84-13.46-13.84h-6.92Z"/><path class="cls-2" d="M169.09,444.41H153.62L150.4,452h-3.75l14.71-34.89,14.7,34.89h-3.75ZM161.36,426l-6.3,15H167.7Z"/><path class="cls-2" d="M200.68,421.1v31h-3.75v-31H185.16l1.15-3.41h26.14l-1.15,3.41Z"/><path class="cls-2" d="M244,444.41H228.51L225.29,452h-3.75l14.7-34.89L251,452h-3.75ZM236.25,426,230,441h12.64Z"/><path class="cls-2" d="M275.57,421.1v31h-3.75v-31H260l1.15-3.41h26.14l-1.15,3.41Z"/><path class="cls-2" d="M323.4,418.41l3.75-1.15V452H323.4V436.72H303.07V452h-3.75V418.41l3.75-1.15v16H323.4Z"/><path class="cls-2" d="M341.52,418.41l3.75-1.15V452h-3.75Z"/><path class="cls-2" d="M363.39,426.29V452h-3.75V417.16l25.28,26.48V418.51l3.75-1.15v35.23Z"/><path class="cls-2" d="M419.49,452.82a18,18,0,0,1-.14-36,17.59,17.59,0,0,1,11,3.65v5a14,14,0,0,0-11-5.19c-7.88,0-14,6.63-14,14.51a14.33,14.33,0,0,0,14.13,14.51,14.06,14.06,0,0,0,9.28-3.56v-6.34h-8.94L421,436h11.58v11.1A18.18,18.18,0,0,1,419.49,452.82Z"/><path class="cls-2" d="M455.93,432.44c4.37,1.54,11.24,3.75,11.24,10.09,0,6.59-4.13,10-12.64,10a16.48,16.48,0,0,1-11-3.8V444.5c2.16,1.88,7.3,4.47,11,4.47,6.25,0,8.65-2.69,8.65-6.49s-4.9-5.24-9.13-6.68c-3.89-1.35-10.38-3.8-10.38-9.66,0-6.87,5.57-9.37,11-9.37,5,0,8.22,1.73,9.8,3.32v4.08a13.42,13.42,0,0,0-9.8-3.8c-4.47,0-7,1.68-7,5.77C447.66,429.56,452,431,455.93,432.44Z"/><path class="cls-2" d="M446.1,229.9a3.34,3.34,0,0,0,0-.58v-.07a1.47,1.47,0,0,0-.07-.21,1.45,1.45,0,0,0,0-.22l-26.45-55.76a15.87,15.87,0,1,0-21.76-21.54L296.71,103.66a1.51,1.51,0,0,0-.41-.07c-.08,0-.14-.08-.23-.08h-.19l-94.13,11.13a6.74,6.74,0,1,0-12.6,4.78q.09.23.19.46l-28.71,22.7a15.87,15.87,0,0,0-22.82,22.06q.48.49,1,.94l-36,51.08a4,4,0,0,0-1-.19,4.18,4.18,0,0,0-4.18,4.18,4.11,4.11,0,0,0,2,3.46l-9,46.43a1.51,1.51,0,0,0,.1.9l20.7,46.78a1.5,1.5,0,0,0,1.15.88l10,1.5a6.73,6.73,0,0,0,5.2,6.06v16.89a1.51,1.51,0,0,0,.5,1.12l31.5,28.26a1.51,1.51,0,0,0,1.5.3l13.47-4.69,13.11,9.28a1.51,1.51,0,0,0,.87.28H215a1.51,1.51,0,0,0,1.29-.73l8.52-14.21a8.94,8.94,0,0,0,6,.7l17.06,43.71a1.51,1.51,0,0,0,1.4,1h.2a1.51,1.51,0,0,0,1.3-1.32l2.64-23.46A6.69,6.69,0,0,0,258,372.92l19-21.17h0l.12-.15,15.18-21.83a6.72,6.72,0,0,0,8.81-3.56q.1-.24.19-.49l25,1.21a1.7,1.7,0,0,0,.72-.15l23.6-11.29a1.54,1.54,0,0,0,.47-.35l18.29-20.32a4.11,4.11,0,0,0,5.68-3.48l45-13.42a10.26,10.26,0,1,0,14-13.78l12-34.15Zm-3.66-1.63-55.51,8.12a10.14,10.14,0,0,0-14.49-6.15l-13.93-19.4A9.28,9.28,0,0,0,361.34,198l-.12-.19L399.82,170a15.5,15.5,0,0,0,17,4.31ZM266.65,255.61a4.06,4.06,0,0,0-6.89-.75l-18-5.4a8.87,8.87,0,0,0-5-9.58l9.55-30.11a4.06,4.06,0,0,0,1.81-.58l52.46,41.17a6.69,6.69,0,0,0-.57,2Zm2.08,36.53a3.93,3.93,0,0,0,.11.52L245.75,305.4a15.94,15.94,0,0,0-3.22-3.38l2-3a1.51,1.51,0,0,0,.24-1L242,275.84a4.13,4.13,0,0,0,2.2-3.61A4.18,4.18,0,0,0,240,268a4.11,4.11,0,0,0-3.47,2l-20.18-3.77a5.52,5.52,0,0,0-.51-1.89l10.62-9.29a9.2,9.2,0,0,0,14.39-2.76l18,5.39a4.13,4.13,0,0,0,3.94,3.87l7.65,27.28a4.1,4.1,0,0,0-1.73,3.27Zm-33.07,47.41-4,6.45a9,9,0,0,0-8.17,1.16L200,325.25a9.25,9.25,0,0,0,1.55-5L217.13,318a15.89,15.89,0,0,0,15.44,12.21c.46,0,.89-.1,1.34-.13Zm-99.76-21a6.72,6.72,0,0,0-.34-1.1l49.16-35.13A3.78,3.78,0,0,0,189,282l30.22,23.74a15.81,15.81,0,0,0-2.55,8.59c0,.25.06.48.07.72l-15.62,2.21a9.26,9.26,0,0,0-18,1.27ZM156.12,242a15.77,15.77,0,0,0-3.87-8.22l20.5-22.25A10.21,10.21,0,0,0,186,209.89l19.41,12.46a4,4,0,0,0-.16.79,4.13,4.13,0,0,0,.36,1.68l-9.9,9.9a8.41,8.41,0,0,0-13.17,5.9Zm86.81-33.78a4.06,4.06,0,0,0,.57.56L233.94,239a9.22,9.22,0,0,0-9.36,13.79l-10.69,9.35a5.55,5.55,0,0,0-5.2-.48l-11.43-14.42a8.36,8.36,0,0,0,.61-10.37l9.9-9.9a4.15,4.15,0,0,0,5.86-3.81c0-.12-.06-.23-.07-.35Zm64.46-53.6a9.27,9.27,0,0,0,7.11-4.14l23,10.23a6.65,6.65,0,0,0-.08.75,6.73,6.73,0,0,0,1.15,3.78L312.31,184.5a15.83,15.83,0,0,0-7.72-5.26Zm88.53,7.16a15.74,15.74,0,0,0,2.11,5.76l-38.91,28a9.21,9.21,0,0,0-14.54,4.87l-28.82-5.09c0-.34.1-.66.1-1A15.74,15.74,0,0,0,314,187l26.88-19.69a6.67,6.67,0,0,0,9.69-3.63ZM366.84,239.3v.49l-54,10.66a6.74,6.74,0,0,0-.57-1l36-38.68A9.05,9.05,0,0,0,355.6,212L370,232a10.24,10.24,0,0,0-3.16,7.34Zm-66.9-29a15.88,15.88,0,0,0,15.35-11.93l29,5.12a9.21,9.21,0,0,0,1.92,5.17l-36.07,38.73a6.59,6.59,0,0,0-7.6.59L250,206.83a4.07,4.07,0,0,0,.21-1l34.58-6.66a15.86,15.86,0,0,0,15.15,11.16ZM236,273a4.06,4.06,0,0,0,3,3.19l2.7,21.61-1.7,2.57a15.63,15.63,0,0,0-18.91,3.06L190.66,279.5a4,4,0,0,0,.16-.79c0-.12-.06-.23-.07-.35l16-7.87a5.53,5.53,0,0,0,9.11-1.25Zm-44.41-23a8.36,8.36,0,0,0,3.29-1l11.44,14.43a5.41,5.41,0,0,0-1,4.28l-15.93,7.86-.37-.25ZM311.4,279.37a6.73,6.73,0,0,0-3.19-1.73V259.82a6.74,6.74,0,0,0,5.23-6.37l54-10.66c.08.22.14.46.23.68L343,258.92Zm85.16-125.16a15.77,15.77,0,0,0-.86,4.59l-44.85,1.87a6.72,6.72,0,0,0-12.37-2.79l-22.8-10.13a9,9,0,0,0-10-11.54l-7.39-28.49ZM296,110.87,302.82,137a9.26,9.26,0,0,0,1.56,17.39l-2.73,24.25a15.65,15.65,0,0,0-1.71-.17A15.91,15.91,0,0,0,284,194.35s0,0,0,.07a15.67,15.67,0,0,0,.18,1.78l-34.54,6.65,30.43-39.52a4,4,0,0,0,1.14.23,4.18,4.18,0,0,0,4.18-4.18,4.1,4.1,0,0,0-1.72-3.29Zm-93.87,6.77L294,106.78l-13.24,48.51a4.13,4.13,0,0,0-3.73,4.09,4.06,4.06,0,0,0,.65,2.11l-30.5,39.61-2.57-29.37a4.14,4.14,0,0,0-3.36-7.57l-40.14-43.42a6.7,6.7,0,0,0,1.06-3.09ZM199,122.82l40.11,43.39a4,4,0,0,0,2.56,5.75l2.62,30A4.13,4.13,0,0,0,242,205.4l-29.72,14.67a4.12,4.12,0,0,0-1.38-.83l-.71-30.55A6.75,6.75,0,0,0,209,175.3h-.32l-10.33-52.16A6.77,6.77,0,0,0,199,122.82Zm-7.76-.55a6.69,6.69,0,0,0,4.19,1.54l10.38,52.32a6.71,6.71,0,0,0,1.38,12.39l.7,30.75a4.09,4.09,0,0,0-.8.53l-19.35-12.42a10.27,10.27,0,0,0-13.27-13.85l-16-27a15.82,15.82,0,0,0,4.05-21.62Zm-42,47.3a15.78,15.78,0,0,0,6.64-1.49l16,27.06a10.13,10.13,0,0,0-1.49,14.25l.14.17L150,231.81a15.71,15.71,0,0,0-22,2.81l-.2.26-21.92-13.5a4,4,0,0,0,.14-.72,4.06,4.06,0,0,0-.75-2.25l36-51.05a15.75,15.75,0,0,0,8,2.21ZM93.68,270.66l8.92-46a4.06,4.06,0,0,0,1.71-.74l21.91,13.5a15.88,15.88,0,1,0,30.08,7.64l26.43-1.46a8.43,8.43,0,0,0,5.89,6.14l-2.49,24.89a4,4,0,0,0-3.37,5.42l-49,35A6.71,6.71,0,0,0,123,317.63l-9.2-1.37Zm67.49,99.44-30.34-27.21V326.67a6.75,6.75,0,0,0,5.07-5.07h47.26a9.26,9.26,0,0,0,4.57,6.55l-13.88,37.54Zm53,5H189.24l-12.41-8.78,13.71-37.09a9.32,9.32,0,0,0,1.77.18,9.22,9.22,0,0,0,5.66-2l23.41,21.84a9.22,9.22,0,0,0,1,12.18Zm41.46-4.1a6.74,6.74,0,1,0-5.21,12.4l-2,17.39-14.86-38.08a9.27,9.27,0,0,0,4.49-7.92v-.29l20.7-2,13.69-.18Zm19.5-21.77-16.49.23-21.12,2.08a9.28,9.28,0,0,0-3.13-4.17l4.14-6.74a1.51,1.51,0,0,0,.2-1.06l-1.81-10A15.82,15.82,0,0,0,247.2,308l23.08-12.73a4.18,4.18,0,1,0,3.05-7.27h0l-7.7-27.45a4.07,4.07,0,0,0,1.27-2l33.44-3.24a6.74,6.74,0,0,0,4.87,4.44v18a6.72,6.72,0,0,0-1.85,12.41l-8.17,26.7H295A6.73,6.73,0,0,0,289.93,328Zm99.13-60.82a4.1,4.1,0,0,0-3.25-1.66,4.18,4.18,0,0,0-4.18,4.18,4.1,4.1,0,0,0,.42,1.77L349.1,312.89l-23,11-24.44-1.18a6.72,6.72,0,0,0-3.56-5.13L306.24,291h.48a6.7,6.7,0,0,0,6.28-9l31.53-20.49L369.33,246a10.17,10.17,0,0,0,15.43.19l34.89,23a10.1,10.1,0,0,0-.59,5.9Zm54.9-25.63a10.22,10.22,0,0,0-7.92,3.8l-34.81-22.93a10.2,10.2,0,0,0,1-4.31l55-8L431.29,263a10.32,10.32,0,0,0-2.13-.2Z"/></svg>